<?xml version="1.0" encoding="utf-8"?>
<!-- Generator: Adobe Illustrator 19.0.0, SVG Export Plug-In . SVG Version: 6.00 Build 0)  -->
<svg version="1.1" id="Layer_1" xmlns="http://www.w3.org/2000/svg" xmlns:xlink="http://www.w3.org/1999/xlink" x="0px" y="0px"
	 viewBox="0 0 612 792" enable-background="new 0 0 612 792" xml:space="preserve">
<g>
	<g>
		<path fill="#FEFEFE" d="M202,336c62.6666565,0,125.333374,0.0356445,187.9997559-0.0967712
			c3.4246826-0.0072327,4.1104126,0.6711731,4.0983887,4.0970764c-0.1498413,42.8327942-0.1368408,85.6664124-0.0145264,128.4993896
			c0.0085144,2.9830322-0.6008911,3.5882263-3.5836792,3.5829163
			c-61.6664734-0.1097107-123.3332214-0.1097107-184.9996948-0.0000305c-2.9822845,0.0053101-3.59198-0.5992126-3.5838013-3.5827026
			C202.0375977,424.3334961,202,380.1667175,202,336z"/>
		<path fill="#0E6C3B" d="M263.959137,377.7403259c-5.5032043-9.1813049-11.6126251-16.5021973-19.7541809-21.8582153
			c-8.2894897-5.4533386-17.3913116-7.4671936-27.2205505-5.8363342c-1.3943634,0.2313232-3.370697,0.4031677-2.713028,2.5901489
			c3.2837524,10.9196167,1.2881775,22.0900879,1.6473083,33.1391296
			c0.3032074,9.3286438,3.9425812,14.1821594,13.2387238,16.1181335c1.6294708,0.3393555,3.1446075,0.7220459,4.7404175,1.4661255
			c-14.1299286,2.0222778-22.7653656-5.9899902-26.8828583-17.9831238
			c-3.0549316-8.8981934-3.4645233-18.1410828-3.1135712-27.3979187c0.2000885-5.2778625-0.5705872-10.6091614,0.9651489-15.8697815
			c0.5517426-1.8899841,1.2234955-2.6311646,3.0704956-3.1871338c12.5404816-3.7749329,24.0943451-1.1325073,34.7277679,5.7001953
			c10.9085541,7.009491,16.859787,17.8665466,21.2609406,29.6793823
			C264.1832886,374.992157,263.959137,375.862854,263.959137,377.7403259z"/>
		<path fill="#0E6C3B" d="M296.6553345,401.3237c5.1407776-1.4876099,6.2705383,1.2319946,7.5713806,5.7309875
			c4.3016052,14.8771667,9.192688,29.591217,14.6785889,44.0946045c0.5216675,1.3791809,2.967804,4.1688232-0.9737244,4.2490845
			c-2.6705933,0.0543823-6.806427,3.1660461-7.9194336-2.3218384c-2.8535767-14.0701904-2.823822-14.0762329-16.9747925-14.0760193
			c-7.9023743,0.0000916-7.9058533-0.000885-10.0412598,7.4698792c-0.6716614,2.3499146-1.6361389,4.6745911-1.8786316,7.070343
			c-0.1975098,1.9511719-0.7736511,2.3918762-2.6445313,2.5158386c-7.0635376,0.4680176-7.1663513,0.3224487-4.4668274-6.1279602
			c5.8694763-14.0249939,10.2017212-28.6006165,14.781311-43.0628662
			C290.2386475,402.2828369,291.6371155,399.7670593,296.6553345,401.3237z"/>
		<path fill="#FE6613" d="M223.8899384,421.7421265c-3.2993164,4.5691528-1.9028015,8.6015015,0.6894073,12.5776978
			c2.1606598,3.3143005,4.0840454,6.8024292,6.4539795,9.9570313c4.6629791,6.2068481,9.5909729,6.2957153,14.7742004,0.5574341
			c3.927887-4.3485107,6.1893921-9.7353516,9.1539459-14.6800842c2.1039276-3.5092163,4.0964203-7.0678406,6.9285431-10.0269165
			c1.850769,0.9266052,0.4970093,1.7567444,0.1821594,2.4634705c-4.063324,9.1212158-4.8667297,19.0424194-7.0867462,28.6154175
			c-1.3399353,5.7780151-2.6850891,11.5996399-6.6197815,16.3021851c-3.9071198,4.6696472-5.7725372,4.5947876-9.4499054-0.1704102
			c-5.4655304-7.0823059-10.9985199-14.1156616-16.3097534-21.3122864c-1.8388367-2.4915771-3.3220978-5.309967-4.5859375-8.1490784
			C214.6395416,430.2826538,216.271698,425.6972046,223.8899384,421.7421265z"/>
		<path fill="#0E6C3B" d="M372.3945007,450.5604553c0.2628479,4.896698-2.3551941,5.440918-6.2008362,5.551178
			c-8.9638062,0.256958-16.871521-1.480957-21.5143738-9.9829102c-5.7281799-10.4894409-3.5231628-28.4796143,11.952301-32.5506897
			c4.7157593-1.2405396,9.524292-0.9033203,14.2627869-0.2228088c1.7956848,0.2578735,3.3849792,0.710083,2.3531799,3.8380432
			c-1.1472778,3.4779663-2.2866821,1.9051819-4.0970459,1.1798401c-9.9254761-3.9766846-19.1080933,2.4063721-19.1326904,13.2685852
			c-0.0059814,2.6452026-0.2189331,5.3912048,0.3848267,7.9184875
			C352.6618652,449.0168152,360.9279175,454.6842651,372.3945007,450.5604553z"/>
		<path fill="#0F6C3C" d="M326.1573792,401.4093933c10.2294922-3.543335,10.6434937-3.5057983,9.702301,6.8772583
			c-1.326416,14.632782,0.1246033,29.2003174,0.2158203,43.7947998c0.0187378,2.9935608-0.6094971,4.0880432-3.7982788,3.9299011
			c-2.902832-0.1439514-4.4562378-0.4077759-4.3673706-4.0274658c0.3503418-14.2630615,0.9546814-28.5306091,0.1498413-42.8063965
			C327.9077148,406.4815979,327.6782227,403.9412231,326.1573792,401.4093933z"/>
		<path fill="#0F6C3B" d="M391.8746948,455.5067749c-8.8760986,0.984314-8.675293,0.9780884-8.9252319-7.098175
			c-0.3377686-10.9124451,0.7454834-21.8249207-0.5785217-32.7732239c-0.3471985-2.8710022,4.2724304-2.0690002,6.7191467-2.7609253
			c3.0934448-0.8748169,1.8451843,1.5322266,1.8529663,2.4992065c0.0907288,11.3059082,0.0521851,22.612793,0.0638428,33.9194336
			C391.0090942,451.3881836,390.7233887,453.5117493,391.8746948,455.5067749z"/>
		<path fill="#FE6715" d="M284.5538025,382.8473511c4.9897766-6.6611938,11.466156-11.0632019,19.540863-13.263031
			c2.356781-0.6420593,3.8309326-0.0531311,5.2990723,1.3948975c0.9397583,0.9269104,0.7869263,2.2210999,0.3895874,3.2864685
			c-0.84729,2.2718201-2.9377747,1.8576355-4.6752014,1.7059937
			C297.2905579,375.2893982,290.6743164,378.0255127,284.5538025,382.8473511z"/>
		<path fill="#116D3D" d="M391.053833,403.3424377c-0.4987183,2.4977112-1.9346313,4.3858337-4.4281921,4.540863
			c-2.6684265,0.1658936-4.35672-1.9098206-4.4824524-4.3084717c-0.1315002-2.5082397,1.5548706-4.4695129,4.249176-4.4972229
			C388.9997253,399.0507813,390.5343323,400.7503662,391.053833,403.3424377z"/>
		<path fill="#FEFEFE" d="M296.6566467,406.8712769c2.3678589,8.062561,4.7060242,16.1340942,7.1286926,24.1801147
			c0.4824829,1.602417-0.3955078,2.1012878-1.5598145,2.5291138c-0.4622803,0.1698608-0.9534302,0.2806396-1.440918,0.3598633
			c-12.3704529,2.0100708-14.2447205-0.0847473-10.4223022-11.6954956
			c1.6742554-5.0855713,3.4085693-10.1513672,5.1156006-15.2261658
			C295.8708191,406.969574,296.2637329,406.9204102,296.6566467,406.8712769z"/>
	</g>
</g>
</svg>
